<?xml version="1.0" encoding="UTF-8" standalone="no"?>
<!-- Created with Inkscape (http://www.inkscape.org/) -->

<svg
   width="210mm"
   height="297mm"
   viewBox="0 0 210 297"
   version="1.1"
   id="svg5"
   inkscape:version="1.1.2 (0a00cf5339, 2022-02-04)"
   sodipodi:docname="drawing.svg"
   xmlns:inkscape="http://www.inkscape.org/namespaces/inkscape"
   xmlns:sodipodi="http://sodipodi.sourceforge.net/DTD/sodipodi-0.dtd"
   xmlns="http://www.w3.org/2000/svg"
   xmlns:svg="http://www.w3.org/2000/svg">
  <sodipodi:namedview
     id="namedview7"
     pagecolor="#505050"
     bordercolor="#ffffff"
     borderopacity="1"
     inkscape:pageshadow="0"
     inkscape:pageopacity="0"
     inkscape:pagecheckerboard="1"
     inkscape:document-units="mm"
     showgrid="false"
     inkscape:zoom="0.69664703"
     inkscape:cx="396.90114"
     inkscape:cy="560.54212"
     inkscape:window-width="1920"
     inkscape:window-height="946"
     inkscape:window-x="0"
     inkscape:window-y="0"
     inkscape:window-maximized="1"
     inkscape:current-layer="layer1" />
  <defs
     id="defs2" />
  <g
     inkscape:label="Layer 1"
     inkscape:groupmode="layer"
     id="layer1">
    <path
       style="fill:none;stroke:#000000;stroke-width:0.264583px;stroke-linecap:butt;stroke-linejoin:miter;stroke-opacity:1"
       d="m 15.037524,112.9194 c 0.472271,0.71953 0.840289,1.51955 1.416815,2.1586 1.1708,1.29778 2.664609,2.28531 3.794986,3.61844 10.059698,11.86413 15.346399,25.63513 18.153032,40.66778 0.434153,2.32536 0.488662,4.76404 1.129001,7.04699 0.49317,1.75825 0.526868,3.1032 0.612717,3.02649 1.285671,-1.14883 -0.205481,-0.032 1.493962,-2.19272 1.980271,-2.51778 3.916143,-5.08879 6.153872,-7.38079 6.200177,-6.35054 13.084932,-11.99694 19.486769,-18.14413 0.821301,-0.78864 16.604379,-16.34326 18.256882,-17.85632 7.747508,-7.09378 16.14908,-13.99399 24.61549,-20.19147 4.93077,-3.60936 11.05207,-6.951958 16.2051,-10.048255 5.35959,-3.220416 10.51803,-7.126914 16.00036,-10.141725 5.45765,-3.001232 14.75577,-5.493464 18.52541,-11.261823 4.34923,-6.655249 -11.29749,-14.647558 -15.28231,-17.377121 -0.19665,-0.134705 -2.96392,-1.868996 -3.52943,-1.397529 -4.53893,3.784121 -8.58194,8.912563 -12.61633,13.046564 -7.74727,7.938572 -16.17884,15.11953 -23.9998,22.9524 -3.78266,3.788421 -7.015235,8.017912 -11.180229,11.427979 -3.99529,3.27113 -8.214934,6.22332 -12.512479,9.09581 -2.994993,2.00186 -6.425139,3.50241 -9.537909,5.33345 -2.399792,1.41165 -5.482283,2.14935 -7.693821,3.8573 -2.239693,1.72969 -7.190393,6.70313 -8.51276,8.99937 -0.629973,1.09393 -1.142388,2.20742 -1.836666,3.26832 -0.588213,0.89883 -1.560221,1.52328 -2.093325,2.45235 -0.379272,0.66097 -3.842864,6.7131 -4.013073,6.76065 -0.06527,0.0182 -2.74973,-8.01772 -2.993855,-8.78276 -0.717098,-2.24725 -1.225153,-4.45355 -2.047336,-6.66126 -0.480933,-1.2914 -1.352526,-2.42614 -2.04585,-3.60657 -1.473833,-2.50931 -2.656277,-5.08509 -3.692621,-7.80954 -0.171143,-0.44993 -2.459958,-9.46942 -3.183752,-10.05271 -1.259094,-1.01469 -3.658478,3.66797 -3.946311,4.20297 -3.394808,6.30991 -5.652022,7.22946 -12.181641,7.22946"
       id="path42" />
  </g>
</svg>
